# File created by Blade
# Date/Time:  Wed Apr 08 14:55:03 2015
# Frame Rate: 120.000 fps
#------------------------------------------------------
:FULLY-SPECIFIED
:DEGREES
941
root 2.044651 34.095199 -5.111367 -51.475259 36.545646 -86.812795
Spine 19.553479 12.333316 35.516704
Head -58.202467 -20.622749 72.843312
LeftShoulder -21.747097 45.737029 15.300346
LeftArm 53.658319 -1.650887 -76.155166
LeftForeArm -5.911325 -0.000000 136.843230
LeftHand 15.673042 -0.000000 22.819084
LeftHandThumb1 -26.253704 0.000000 33.147579
RightShoulder 9.488939 19.783554 -14.332047
RightArm 36.619527 -20.511190 93.026856
RightForeArm -2.228707 -0.000000 103.136195
RightHand 16.434846 -0.000000 -24.034472
RightHandThumb1 -24.326973 -0.000000 -32.862282
LeftUpLeg -43.591196 33.133524 45.081042
LeftLeg 29.642934 -0.000000 -0.000000
LeftFoot -4.755516 -0.199578 -15.084574
LeftToeBase -10.133119 -0.000000 0.000000
RightUpLeg -39.243463 -57.387997 -47.784038
RightLeg -11.392065 -0.000000 0.000000
RightFoot -16.229614 -40.573087 5.036677
RightToeBase -6.211734 -0.000000 0.000000
942
root 1.975534 34.086771 -5.086312 -49.983367 36.580198 -86.351710
Spine 18.643435 13.421783 34.813396
Head -58.536480 -20.740594 72.648940
LeftShoulder -21.357609 45.366772 15.586199
LeftArm 53.461473 -1.851750 -76.268912
LeftForeArm -5.959554 -0.000000 136.833941
LeftHand 15.637155 -0.000000 23.222770
LeftHandThumb1 -26.253704 0.000000 33.147579
RightShoulder 9.056002 19.200423 -14.525633
RightArm 35.827807 -20.491144 93.193968
RightForeArm -1.221369 -0.000000 103.579145
RightHand 16.309830 -0.000000 -24.154385
RightHandThumb1 -24.326973 -0.000000 -32.862282
LeftUpLeg -44.690547 33.709603 44.646166
LeftLeg 30.169593 -0.000000 -0.000000
LeftFoot -4.473535 0.611734 -14.515196
LeftToeBase -11.155544 -0.000000 0.000000
RightUpLeg -41.434681 -56.575061 -47.537492
RightLeg -7.733391 -0.000000 0.000000
RightFoot -18.189475 -41.714895 7.330620
RightToeBase -4.604259 -0.000000 0.000000
943
root 1.871074 34.078844 -5.077046 -48.543903 36.473012 -85.923767
Spine 17.864514 14.241837 34.256397
Head -58.664531 -20.887357 71.999484
LeftShoulder -21.091841 44.942111 15.801350
LeftArm 53.202906 -2.372264 -76.553262
LeftForeArm -6.052676 -0.000000 136.893916
LeftHand 15.664237 -0.000000 23.380261
LeftHandThumb1 -26.253704 0.000000 33.147579
RightShoulder 8.920039 18.782267 -14.846109
RightArm 35.131744 -20.413153 93.425437
RightForeArm -0.569525 -0.000000 103.968364
RightHand 16.205958 -0.000000 -23.881754
RightHandThumb1 -24.326973 -0.000000 -32.862282
LeftUpLeg -45.815859 33.936417 44.463901
LeftLeg 30.885050 -0.000000 -0.000000
LeftFoot -4.364305 2.170548 -13.911166
LeftToeBase -11.595060 -0.000000 0.000000
RightUpLeg -43.670769 -55.344019 -47.422441
RightLeg -2.861131 -0.000000 0.000000
RightFoot -19.050110 -41.855916 8.091326
RightToeBase -3.743836 -0.000000 0.000000
944
root 1.752858 34.085529 -5.088800 -47.166517 35.979265 -85.515546
Spine 17.347838 14.860917 34.079124
Head -58.585243 -20.875135 71.024784
LeftShoulder -21.118648 44.503937 15.711360
LeftArm 52.932900 -3.032213 -76.918030
LeftForeArm -5.914201 -0.000000 137.001104
LeftHand 15.775554 -0.000000 23.554204
LeftHandThumb1 -26.253704 0.000000 33.147579
RightShoulder 9.002119 18.460734 -15.228906
RightArm 34.773497 -20.422289 93.394704
RightForeArm -0.233375 -0.000000 104.217732
RightHand 16.196067 -0.000000 -23.982569
RightHandThumb1 -24.326973 -0.000000 -32.862282
LeftUpLeg -46.627316 34.109407 44.687531
LeftLeg 31.419582 -0.000000 -0.000000
LeftFoot -4.435519 4.329915 -13.393538
LeftToeBase -11.107261 -0.000000 0.000000
RightUpLeg -45.982892 -53.396759 -47.308051
RightLeg 2.902029 -0.000000 -0.000000
RightFoot -19.721788 -41.364498 8.529269
RightToeBase -4.556334 -0.000000 0.000000
945
root 1.664931 34.110631 -5.095646 -46.296744 35.115309 -85.480517
Spine 17.104886 15.085923 34.498678
Head -58.390621 -20.806360 70.076971
LeftShoulder -21.409369 44.208117 15.248194
LeftArm 52.798075 -3.749945 -77.265407
LeftForeArm -5.500174 -0.000000 137.126587
LeftHand 15.876390 -0.000000 23.580102
LeftHandThumb1 -26.253704 0.000000 33.147579
RightShoulder 9.187818 18.226853 -15.438540
RightArm 34.586858 -20.662266 92.942378
RightForeArm -0.324479 -0.000000 104.426330
RightHand 16.035763 0.000000 -23.245477
RightHandThumb1 -24.326973 -0.000000 -32.862282
LeftUpLeg -46.979395 34.190051 45.432844
LeftLeg 31.611880 -0.000000 -0.000000
LeftFoot -4.767463 6.750444 -13.175883
LeftToeBase -10.183237 -0.000000 0.000000
RightUpLeg -48.379444 -51.293256 -46.600340
RightLeg 9.163116 -0.000000 -0.000000
RightFoot -19.511616 -39.564508 8.197792
RightToeBase -6.869126 -0.000000 0.000000
946
root 1.621607 34.144049 -5.069225 -46.190500 34.187925 -85.916803
Spine 17.110585 14.754815 35.265388
Head -58.077592 -20.772116 69.466332
LeftShoulder -21.757824 44.017435 14.719852
LeftArm 52.749380 -4.412727 -77.572447
LeftForeArm -4.808597 -0.000000 137.259261
LeftHand 15.974394 -0.000000 23.640256
LeftHandThumb1 -26.253704 0.000000 33.147579
RightShoulder 9.344372 18.056317 -15.360606
RightArm 34.559510 -20.996514 92.141248
RightForeArm -0.995856 -0.000000 104.532816
RightHand 16.028962 0.000000 -23.036659
RightHandThumb1 -24.326973 -0.000000 -32.862282
LeftUpLeg -46.986933 34.141603 46.350668
LeftLeg 31.423853 -0.000000 -0.000000
LeftFoot -5.092559 9.024944 -12.846690
LeftToeBase -9.481146 -0.000000 0.000000
RightUpLeg -50.252360 -49.202648 -45.686389
RightLeg 15.357138 -0.000000 -0.000000
RightFoot -18.852800 -36.927071 6.802251
RightToeBase -8.584197 -0.000000 0.000000
947
root 1.602212 34.172820 -5.028955 -46.527448 33.524032 -86.592664
Spine 17.167276 13.984659 35.935820
Head -57.711541 -20.701059 69.164363
LeftShoulder -22.131014 43.931978 14.200242
LeftArm 52.921848 -5.009695 -77.846892
LeftForeArm -4.117186 -0.000000 137.338468
LeftHand 15.949973 0.000000 23.536287
LeftHandThumb1 -26.253704 0.000000 33.147579
RightShoulder 9.411945 18.017342 -15.012184
RightArm 34.564150 -21.443966 91.101842
RightForeArm -1.953246 -0.000000 104.597072
RightHand 15.724817 -0.000000 -22.882204
RightHandThumb1 -24.326973 -0.000000 -32.862282
LeftUpLeg -46.905589 33.947616 46.942627
LeftLeg 30.815603 -0.000000 -0.000000
LeftFoot -5.438779 11.116574 -12.438541
LeftToeBase -8.851354 -0.000000 0.000000
RightUpLeg -51.417308 -47.183668 -45.008531
RightLeg 21.082079 -0.000000 -0.000000
RightFoot -18.239496 -33.791386 5.351917
RightToeBase -9.318891 -0.000000 0.000000
948
root 1.593016 34.196078 -4.985557 -47.119840 33.116810 -87.366403
Spine 17.244405 13.027311 36.465892
Head -57.396857 -20.709503 69.148438
LeftShoulder -22.212626 43.864463 13.985716
LeftArm 53.162518 -5.511323 -78.161703
LeftForeArm -3.468556 -0.000000 137.377101
LeftHand 15.875368 0.000000 23.497204
LeftHandThumb1 -26.253704 0.000000 33.147579
RightShoulder 9.332204 18.064066 -14.571818
RightArm 34.479490 -21.869943 90.049598
RightForeArm -2.915303 -0.000000 104.628247
RightHand 15.676764 -0.000000 -22.727273
RightHandThumb1 -24.326973 -0.000000 -32.862282
LeftUpLeg -46.835398 33.796277 47.076542
LeftLeg 29.872204 -0.000000 -0.000000
LeftFoot -5.636808 12.872167 -11.438395
LeftToeBase -8.352565 -0.000000 0.000000
RightUpLeg -52.207699 -45.249196 -44.417197
RightLeg 26.401365 -0.000000 -0.000000
RightFoot -17.826666 -31.519280 4.058055
RightToeBase -10.529889 -0.000000 0.000000
949
root 1.597396 34.212308 -4.933957 -47.966160 32.955454 -88.106388
Spine 17.458501 11.921247 36.781881
Head -57.067016 -20.651139 69.304762
LeftShoulder -22.153364 43.875944 13.945977
LeftArm 53.611795 -5.918632 -78.419370
LeftForeArm -3.010361 -0.000000 137.309926
LeftHand 15.743723 -0.000000 23.361953
LeftHandThumb1 -26.253704 0.000000 33.147579
RightShoulder 9.173780 17.923239 -14.129315
RightArm 34.540700 -22.183628 89.024895
RightForeArm -3.747760 -0.000000 104.674824
RightHand 15.696418 -0.000000 -22.625534
RightHandThumb1 -24.326973 -0.000000 -32.862282
LeftUpLeg -46.615078 33.583925 46.907985
LeftLeg 28.728381 -0.000000 -0.000000
LeftFoot -5.716703 14.273608 -10.088550
LeftToeBase -8.209364 -0.000000 0.000000
RightUpLeg -52.796340 -43.395438 -43.939977
RightLeg 31.799141 -0.000000 -0.000000
RightFoot -17.894412 -30.297142 2.591532
RightToeBase -9.558955 -0.000000 0.000000
950
root 1.602429 34.222080 -4.873161 -48.944202 32.963322 -88.766757
Spine 17.765009 10.823640 36.897299
Head -56.734588 -20.644977 69.611191
LeftShoulder -21.759773 43.859538 14.323873
LeftArm 54.074689 -6.224660 -78.736711
LeftForeArm -2.755549 -0.000000 137.172290
LeftHand 15.682871 -0.000000 23.278467
LeftHandThumb1 -26.253704 0.000000 33.147579
RightShoulder 8.994583 17.687145 -13.772532
RightArm 34.580801 -22.279573 88.249000
RightForeArm -4.351007 -0.000000 104.747736
RightHand 15.615645 0.000000 -22.736670
RightHandThumb1 -24.326973 -0.000000 -32.862282
LeftUpLeg -46.192258 33.247259 46.724924
LeftLeg 27.523948 -0.000000 -0.000000
LeftFoot -5.711329 15.205854 -8.702615
LeftToeBase -7.812948 -0.000000 0.000000
RightUpLeg -53.804648 -42.171618 -42.908243
RightLeg 37.171560 -0.000000 -0.000000
RightFoot -18.538089 -29.859918 1.809465
RightToeBase -11.715141 -0.000000 0.000000
951
root 1.598071 34.212819 -4.799177 -49.775301 33.339863 -89.263102
Spine 17.853856 9.805189 36.476515
Head -56.302297 -20.732931 70.112408
LeftShoulder -21.160824 43.886479 15.078802
LeftArm 54.562160 -6.471031 -79.008026
LeftForeArm -2.656906 -0.000000 136.986305
LeftHand 15.589152 -0.000000 23.315284
LeftHandThumb1 -26.253704 0.000000 33.147579
RightShoulder 8.809836 17.256332 -13.460622
RightArm 34.651161 -22.199262 87.700824
RightForeArm -4.510180 -0.000000 104.855183
RightHand 15.566227 -0.000000 -22.764595
RightHandThumb1 -24.326973 -0.000000 -32.862282
LeftUpLeg -45.806306 32.734245 46.358781
LeftLeg 26.330153 -0.000000 -0.000000
LeftFoot -5.615421 15.742558 -7.329990
LeftToeBase -7.720297 -0.000000 0.000000
RightUpLeg -55.011297 -41.271812 -42.090747
RightLeg 42.833788 -0.000000 -0.000000
RightFoot -19.875470 -29.593794 2.281285
RightToeBase -11.959427 -0.000000 0.000000
952
root 1.591336 34.195910 -4.718369 -50.558424 33.931301 -89.747237
Spine 17.791100 8.855384 35.817934
Head -55.862528 -20.818222 70.647173
LeftShoulder -20.369139 43.836946 16.098674
LeftArm 55.003492 -6.618740 -79.145818
LeftForeArm -2.709746 -0.000000 136.769202
LeftHand 15.495954 -0.000000 23.539629
LeftHandThumb1 -26.253704 0.000000 33.147579
RightShoulder 8.604132 16.746137 -13.292631
RightArm 34.599522 -21.995316 87.472463
RightForeArm -4.253385 -0.000000 104.981939
RightHand 15.476318 -0.000000 -22.829629
RightHandThumb1 -24.326973 -0.000000 -32.862282
LeftUpLeg -45.475913 31.932669 46.087295
LeftLeg 25.295348 -0.000000 -0.000000
LeftFoot -5.526863 16.089091 -6.446722
LeftToeBase -7.414628 -0.000000 0.000000
RightUpLeg -56.337111 -40.654335 -41.259901
RightLeg 48.697453 -0.000000 -0.000000
RightFoot -20.870569 -29.104157 2.402543
RightToeBase -12.286255 -0.000000 0.000000
953
root 1.582339 34.180668 -4.636729 -51.330310 34.647232 -90.275934
Spine 17.639375 7.935924 35.058868
Head -55.446634 -20.860982 71.150742
LeftShoulder -19.560443 43.791879 17.150328
LeftArm 55.540958 -6.676221 -79.076983
LeftForeArm -3.014443 -0.000000 136.521605
LeftHand 15.462313 -0.000000 24.021434
LeftHandThumb1 -26.253704 0.000000 33.147579
RightShoulder 8.441612 16.238359 -13.173443
RightArm 34.397295 -21.634654 87.530572
RightForeArm -3.631365 -0.000000 105.135961
RightHand 15.505655 -0.000000 -22.770153
RightHandThumb1 -24.326973 -0.000000 -32.862282
LeftUpLeg -45.335516 30.879267 45.916879
LeftLeg 24.619149 -0.000000 -0.000000
LeftFoot -5.336612 16.391666 -5.900937
LeftToeBase -7.567000 -0.000000 0.000000
RightUpLeg -57.627242 -40.032411 -40.488823
RightLeg 54.661023 -0.000000 -0.000000
RightFoot -21.748636 -28.325251 2.795298
RightToeBase -12.211576 -0.000000 0.000000
